ffmpeg started on 2025-06-19 at 10:21:02
Report written to "D:\Convert\FFMetrics\reports\psnr_report-6.txt"
Log level: 32
Command line:
ffmpeg -hide_banner -nostdin -i "G:\\\xc0\xed\xe8\xec\xe5\\[\xd2\xee\xef-4]\\RErideD - \xc4\xe5\xf0\xf0\xe8\xe4\xe0, \xef\xee\xea\xee\xf0\xe8\xe2\xf8\xe8\xe9 \xe2\xf0\xe5\xec\xff\\RErideD_Koku_Koe_no_Derrida_[05]_[AniLibria_TV]_[WEBRip_720p]_HEVC.mkv" -i "G:\\\xc0\xed\xe8\xec\xe5\\[\xd2\xee\xef-4]\\RErideD - \xc4\xe5\xf0\xf0\xe8\xe4\xe0, \xef\xee\xea\xee\xf0\xe8\xe2\xf8\xe8\xe9 \xe2\xf0\xe5\xec\xff\\RErideD_Koku_Koe_no_Derrida_[05]_[AniLibria_TV]_[WEBRip_720p].mkv" -lavfi "[0:v]settb=AVTB,setpts=PTS-STARTPTS,format=pix_fmts=yuv420p10,fps=24000/1001,scale=1280:720:flags=bicubic[main];[1:v]settb=AVTB,setpts=PTS-STARTPTS,format=pix_fmts=yuv420p,fps=24000/1001,scale=1280:720:flags=bicubic[ref];[main][ref]psnr=eof_action=endall:stats_file='D\\:/Convert/FFMetrics/logs/psnr_logfile-6.txt'" -f null -
Input #0, matroska,webm, from 'G:\Аниме\[Топ-4]\RErideD - Деррида, покоривший время\RErideD_Koku_Koe_no_Derrida_[05]_[AniLibria_TV]_[WEBRip_720p]_HEVC.mkv':
  Metadata:
    ENCODER         : Lavf61.7.100
  Duration: 00:23:40.09, start: -0.021000, bitrate: 780 kb/s
  Stream #0:0(jpn): Video: hevc (Main 10), yuv420p10le(tv, bt709, progressive), 1280x720 [SAR 1:1 DAR 16:9], 23.98 fps, 23.98 tbr, 1k tbn (default)
      Metadata:
        ENCODER         : Lavc61.19.100 libx265
        BPS             : 581617
        DURATION        : 00:23:40.002708333
        NUMBER_OF_FRAMES: 34046
        NUMBER_OF_BYTES : 103237265
        _STATISTICS_WRITING_APP: mkvpropedit v66.0.0 ('Josie') 64-bit
        _STATISTICS_WRITING_DATE_UTC: 2025-06-17 15:19:57
        _STATISTICS_TAGS: BPS DURATION NUMBER_OF_FRAMES NUMBER_OF_BYTES
  Stream #0:1(rus): Audio: aac (LC), 48000 Hz, stereo, fltp (default) (forced)
      Metadata:
        title           : AniLibria.TV
        ENCODER         : Lavc61.19.100 aac
        BPS             : 194640
        DURATION        : 00:23:40.031000000
        NUMBER_OF_FRAMES: 66565
        NUMBER_OF_BYTES : 34549366
        _STATISTICS_WRITING_APP: mkvpropedit v66.0.0 ('Josie') 64-bit
        _STATISTICS_WRITING_DATE_UTC: 2025-06-17 15:19:57
        _STATISTICS_TAGS: BPS DURATION NUMBER_OF_FRAMES NUMBER_OF_BYTES
  Stream #0:2(rus): Subtitle: ass (ssa) (default) (forced)
      Metadata:
        title           : Надписи
        BPS             : 7
        DURATION        : 00:22:09.040000000
        NUMBER_OF_FRAMES: 11
        NUMBER_OF_BYTES : 1271
        _STATISTICS_WRITING_APP: mkvpropedit v66.0.0 ('Josie') 64-bit
        _STATISTICS_WRITING_DATE_UTC: 2025-06-17 15:19:57
        _STATISTICS_TAGS: BPS DURATION NUMBER_OF_FRAMES NUMBER_OF_BYTES
  Stream #0:3(rus): Subtitle: ass (ssa)
      Metadata:
        title           : Полные субтитры
        BPS             : 112
        DURATION        : 00:20:47.600000000
        NUMBER_OF_FRAMES: 285
        NUMBER_OF_BYTES : 17560
        _STATISTICS_WRITING_APP: mkvpropedit v66.0.0 ('Josie') 64-bit
        _STATISTICS_WRITING_DATE_UTC: 2025-06-17 15:19:57
        _STATISTICS_TAGS: BPS DURATION NUMBER_OF_FRAMES NUMBER_OF_BYTES
Input #1, matroska,webm, from 'G:\Аниме\[Топ-4]\RErideD - Деррида, покоривший время\RErideD_Koku_Koe_no_Derrida_[05]_[AniLibria_TV]_[WEBRip_720p].mkv':
  Metadata:
    encoder         : libebml v1.4.2 + libmatroska v1.6.4
    creation_time   : 2024-12-15T11:01:41.000000Z
  Duration: 00:23:40.09, start: 0.000000, bitrate: 2082 kb/s
  Stream #1:0(jpn): Video: h264 (High), yuv420p(progressive), 1280x720 [SAR 1:1 DAR 16:9], 23.98 fps, 23.98 tbr, 1k tbn (default)
      Metadata:
        BPS             : 1883085
        DURATION        : 00:23:40.004000000
        NUMBER_OF_FRAMES: 34046
        NUMBER_OF_BYTES : 334248680
        _STATISTICS_WRITING_APP: mkvmerge v66.0.0 ('Josie') 64-bit
        _STATISTICS_WRITING_DATE_UTC: 2024-12-15 11:01:41
        _STATISTICS_TAGS: BPS DURATION NUMBER_OF_FRAMES NUMBER_OF_BYTES
  Stream #1:1(rus): Audio: aac (LC), 48000 Hz, stereo, fltp (default) (forced)
      Metadata:
        title           : AniLibria.TV
        BPS             : 195825
        DURATION        : 00:23:40.031000000
        NUMBER_OF_FRAMES: 66564
        NUMBER_OF_BYTES : 34759729
        _STATISTICS_WRITING_APP: mkvmerge v66.0.0 ('Josie') 64-bit
        _STATISTICS_WRITING_DATE_UTC: 2024-12-15 11:01:41
        _STATISTICS_TAGS: BPS DURATION NUMBER_OF_FRAMES NUMBER_OF_BYTES
  Stream #1:2(rus): Subtitle: ass (ssa) (default) (forced)
      Metadata:
        title           : Надписи
        BPS             : 7
        DURATION        : 00:22:09.040000000
        NUMBER_OF_FRAMES: 11
        NUMBER_OF_BYTES : 1271
        _STATISTICS_WRITING_APP: mkvmerge v66.0.0 ('Josie') 64-bit
        _STATISTICS_WRITING_DATE_UTC: 2024-12-15 11:01:41
        _STATISTICS_TAGS: BPS DURATION NUMBER_OF_FRAMES NUMBER_OF_BYTES
  Stream #1:3(rus): Subtitle: ass (ssa)
      Metadata:
        title           : Полные субтитры
        BPS             : 112
        DURATION        : 00:20:47.600000000
        NUMBER_OF_FRAMES: 285
        NUMBER_OF_BYTES : 17560
        _STATISTICS_WRITING_APP: mkvmerge v66.0.0 ('Josie') 64-bit
        _STATISTICS_WRITING_DATE_UTC: 2024-12-15 11:01:41
        _STATISTICS_TAGS: BPS DURATION NUMBER_OF_FRAMES NUMBER_OF_BYTES
  Stream #1:4: Attachment: ttf
      Metadata:
        filename        : OpenSans-Semibold.ttf
        mimetype        : application/x-truetype-font
  Stream #1:5: Attachment: ttf
      Metadata:
        filename        : v_MightyZeo2.0_v1.07.ttf
        mimetype        : application/x-truetype-font
Stream mapping:
  Stream #0:0 (hevc) -> settb:default
  Stream #1:0 (h264) -> settb:default
  psnr:default -> Stream #0:0 (wrapped_avframe)
  Stream #0:1 -> #0:1 (aac (native) -> pcm_s16le (native))
[swscaler @ 0000028efdb268c0] No accelerated colorspace conversion found from yuv420p to bgr48le.
[swscaler @ 0000028efdb5a7c0] No accelerated colorspace conversion found from yuv420p to bgr48le.
[swscaler @ 0000028e818e9dc0] No accelerated colorspace conversion found from yuv420p to bgr48le.
[swscaler @ 0000028e81a517c0] No accelerated colorspace conversion found from yuv420p to bgr48le.
[swscaler @ 0000028e81aac000] No accelerated colorspace conversion found from yuv420p to bgr48le.
[swscaler @ 0000028e81bc3b40] No accelerated colorspace conversion found from yuv420p to bgr48le.
[swscaler @ 0000028e81d28040] No accelerated colorspace conversion found from yuv420p to bgr48le.
[swscaler @ 0000028e81e6cf00] No accelerated colorspace conversion found from yuv420p to bgr48le.
[swscaler @ 0000028e81ed8040] No accelerated colorspace conversion found from yuv420p to bgr48le.
[swscaler @ 0000028e81f5c040] No accelerated colorspace conversion found from yuv420p to bgr48le.
[swscaler @ 0000028e81f79e80] No accelerated colorspace conversion found from yuv420p to bgr48le.
[swscaler @ 0000028e84af5040] No accelerated colorspace conversion found from yuv420p to bgr48le.
[swscaler @ 0000028e84b52040] No accelerated colorspace conversion found from yuv420p to bgr48le.
[swscaler @ 0000028e84bcf040] No accelerated colorspace conversion found from yuv420p to bgr48le.
[swscaler @ 0000028e84c2d040] No accelerated colorspace conversion found from yuv420p to bgr48le.
[swscaler @ 0000028e84c8f040] No accelerated colorspace conversion found from yuv420p to bgr48le.
Output #0, null, to 'pipe:':
  Metadata:
    encoder         : Lavf61.7.100
  Stream #0:0: Video: wrapped_avframe, yuv420p10le(tv, bt709, progressive), 1280x720 [SAR 1:1 DAR 16:9], q=2-31, 200 kb/s, 23.98 fps, 23.98 tbn
      Metadata:
        encoder         : Lavc61.19.100 wrapped_avframe
  Stream #0:1(rus): Audio: pcm_s16le, 48000 Hz, stereo, s16, 1536 kb/s (default) (forced)
      Metadata:
        title           : AniLibria.TV
        _STATISTICS_TAGS: BPS DURATION NUMBER_OF_FRAMES NUMBER_OF_BYTES
        BPS             : 194640
        DURATION        : 00:23:40.031000000
        NUMBER_OF_FRAMES: 66565
        NUMBER_OF_BYTES : 34549366
        _STATISTICS_WRITING_APP: mkvpropedit v66.0.0 ('Josie') 64-bit
        _STATISTICS_WRITING_DATE_UTC: 2025-06-17 15:19:57
        encoder         : Lavc61.19.100 pcm_s16le
frame=   82 fps=0.0 q=-0.0 size=N/A time=00:00:03.42 bitrate=N/A speed=6.63x    frame=  170 fps=164 q=-0.0 size=N/A time=00:00:07.09 bitrate=N/A speed=6.85x    frame=  246 fps=158 q=-0.0 size=N/A time=00:00:10.26 bitrate=N/A speed=6.61x    frame=  343 fps=166 q=-0.0 size=N/A time=00:00:14.30 bitrate=N/A speed= 6.9x    frame=  425 fps=164 q=-0.0 size=N/A time=00:00:17.72 bitrate=N/A speed=6.85x    frame=  496 fps=160 q=-0.0 size=N/A time=00:00:20.68 bitrate=N/A speed=6.67x    frame=  572 fps=158 q=-0.0 size=N/A time=00:00:23.85 bitrate=N/A speed=6.58x    frame=  655 fps=158 q=-0.0 size=N/A time=00:00:27.31 bitrate=N/A speed=6.61x    frame=  729 fps=157 q=-0.0 size=N/A time=00:00:30.40 bitrate=N/A speed=6.54x    frame=  806 fps=156 q=-0.0 size=N/A time=00:00:33.61 bitrate=N/A speed=6.51x    frame=  883 fps=155 q=-0.0 size=N/A time=00:00:36.82 bitrate=N/A speed=6.48x    frame=  964 fps=155 q=-0.0 size=N/A time=00:00:40.20 bitrate=N/A speed=6.48x    frame= 1036 fps=155 q=-0.0 size=N/A time=00:00:43.20 bitrate=N/A speed=6.45x    frame= 1135 fps=157 q=-0.0 size=N/A time=00:00:47.33 bitrate=N/A speed=6.55x    frame= 1212 fps=156 q=-0.0 size=N/A time=00:00:50.55 bitrate=N/A speed=6.53x    frame= 1302 fps=158 q=-0.0 size=N/A time=00:00:54.30 bitrate=N/A speed=6.58x    frame= 1394 fps=159 q=-0.0 size=N/A time=00:00:58.14 bitrate=N/A speed=6.62x    frame= 1470 fps=158 q=-0.0 size=N/A time=00:01:01.31 bitrate=N/A speed= 6.6x    frame= 1550 fps=158 q=-0.0 size=N/A time=00:01:04.64 bitrate=N/A speed=6.59x    frame= 1612 fps=156 q=-0.0 size=N/A time=00:01:07.23 bitrate=N/A speed=6.52x    frame= 1682 fps=155 q=-0.0 size=N/A time=00:01:10.15 bitrate=N/A speed=6.47x    frame= 1758 fps=155 q=-0.0 size=N/A time=00:01:13.32 bitrate=N/A speed=6.46x    frame= 1833 fps=154 q=-0.0 size=N/A time=00:01:16.45 bitrate=N/A speed=6.44x    frame= 1914 fps=155 q=-0.0 size=N/A time=00:01:19.82 bitrate=N/A speed=6.45x    frame= 1988 fps=154 q=-0.0 size=N/A time=00:01:22.91 bitrate=N/A speed=6.43x    frame= 2079 fps=155 q=-0.0 size=N/A time=00:01:26.71 bitrate=N/A speed=6.46x    frame= 2158 fps=155 q=-0.0 size=N/A time=00:01:30.00 bitrate=N/A speed=6.46x    frame= 2234 fps=155 q=-0.0 size=N/A time=00:01:33.17 bitrate=N/A speed=6.45x    frame= 2304 fps=154 q=-0.0 size=N/A time=00:01:36.09 bitrate=N/A speed=6.42x    frame= 2384 fps=154 q=-0.0 size=N/A time=00:01:39.43 bitrate=N/A speed=6.43x    frame= 2456 fps=154 q=-0.0 size=N/A time=00:01:42.43 bitrate=N/A speed= 6.4x    frame= 2546 fps=154 q=-0.0 size=N/A time=00:01:46.18 bitrate=N/A speed=6.43x    frame= 2632 fps=155 q=-0.0 size=N/A time=00:01:49.77 bitrate=N/A speed=6.45x    frame= 2711 fps=154 q=-0.0 size=N/A time=00:01:53.07 bitrate=N/A speed=6.44x    frame= 2781 fps=154 q=-0.0 size=N/A time=00:01:55.99 bitrate=N/A speed=6.42x    frame= 2862 fps=154 q=-0.0 size=N/A time=00:01:59.36 bitrate=N/A speed=6.42x    frame= 2943 fps=154 q=-0.0 size=N/A time=00:02:02.74 bitrate=N/A speed=6.43x    frame= 3013 fps=154 q=-0.0 size=N/A time=00:02:05.66 bitrate=N/A speed=6.41x    frame= 3103 fps=154 q=-0.0 size=N/A time=00:02:09.42 bitrate=N/A speed=6.43x    frame= 3192 fps=155 q=-0.0 size=N/A time=00:02:13.13 bitrate=N/A speed=6.45x    frame= 3261 fps=154 q=-0.0 size=N/A time=00:02:16.01 bitrate=N/A speed=6.43x    frame= 3349 fps=154 q=-0.0 size=N/A time=00:02:19.68 bitrate=N/A speed=6.44x    frame= 3430 fps=155 q=-0.0 size=N/A time=00:02:23.05 bitrate=N/A speed=6.45x    frame= 3518 fps=155 q=-0.0 size=N/A time=00:02:26.72 bitrate=N/A speed=6.46x    frame= 3601 fps=155 q=-0.0 size=N/A time=00:02:30.19 bitrate=N/A speed=6.47x    frame= 3692 fps=155 q=-0.0 size=N/A time=00:02:33.98 bitrate=N/A speed=6.48x    frame= 3776 fps=156 q=-0.0 size=N/A time=00:02:37.49 bitrate=N/A speed=6.49x    frame= 3872 fps=156 q=-0.0 size=N/A time=00:02:41.49 bitrate=N/A speed=6.52x    frame= 3959 fps=156 q=-0.0 size=N/A time=00:02:45.12 bitrate=N/A speed=6.52x    frame= 4041 fps=157 q=-0.0 size=N/A time=00:02:48.54 bitrate=N/A speed=6.53x    frame= 4132 fps=157 q=-0.0 size=N/A time=00:02:52.33 bitrate=N/A speed=6.55x    frame= 4222 fps=157 q=-0.0 size=N/A time=00:02:56.09 bitrate=N/A speed=6.56x    frame= 4303 fps=157 q=-0.0 size=N/A time=00:02:59.47 bitrate=N/A speed=6.56x    frame= 4397 fps=158 q=-0.0 size=N/A time=00:03:03.39 bitrate=N/A speed=6.57x    frame= 4479 fps=158 q=-0.0 size=N/A time=00:03:06.81 bitrate=N/A speed=6.57x    frame= 4574 fps=158 q=-0.0 size=N/A time=00:03:10.77 bitrate=N/A speed=6.59x    frame= 4668 fps=158 q=-0.0 size=N/A time=00:03:14.69 bitrate=N/A speed=6.61x    frame= 4765 fps=159 q=-0.0 size=N/A time=00:03:18.74 bitrate=N/A speed=6.63x    frame= 4858 fps=159 q=-0.0 size=N/A time=00:03:22.61 bitrate=N/A speed=6.64x    frame= 4945 fps=159 q=-0.0 size=N/A time=00:03:26.24 bitrate=N/A speed=6.65x    frame= 5046 fps=160 q=-0.0 size=N/A time=00:03:30.46 bitrate=N/A speed=6.68x    frame= 5141 fps=160 q=-0.0 size=N/A time=00:03:34.42 bitrate=N/A speed=6.69x    frame= 5233 fps=161 q=-0.0 size=N/A time=00:03:38.25 bitrate=N/A speed= 6.7x    frame= 5329 fps=161 q=-0.0 size=N/A time=00:03:42.26 bitrate=N/A speed=6.72x    frame= 5409 fps=161 q=-0.0 size=N/A time=00:03:45.60 bitrate=N/A speed=6.71x    frame= 5501 fps=161 q=-0.0 size=N/A time=00:03:49.43 bitrate=N/A speed=6.73x    frame= 5591 fps=161 q=-0.0 size=N/A time=00:03:53.19 bitrate=N/A speed=6.73x    frame= 5678 fps=162 q=-0.0 size=N/A time=00:03:56.81 bitrate=N/A speed=6.74x    frame= 5776 fps=162 q=-0.0 size=N/A time=00:04:00.90 bitrate=N/A speed=6.75x    frame= 5871 fps=162 q=-0.0 size=N/A time=00:04:04.86 bitrate=N/A speed=6.77x    frame= 5971 fps=163 q=-0.0 size=N/A time=00:04:09.04 bitrate=N/A speed=6.79x    frame= 6062 fps=163 q=-0.0 size=N/A time=00:04:12.83 bitrate=N/A speed=6.79x    frame= 6159 fps=163 q=-0.0 size=N/A time=00:04:16.88 bitrate=N/A speed=6.81x    frame= 6246 fps=163 q=-0.0 size=N/A time=00:04:20.51 bitrate=N/A speed=6.81x    frame= 6338 fps=164 q=-0.0 size=N/A time=00:04:24.34 bitrate=N/A speed=6.82x    frame= 6422 fps=163 q=-0.0 size=N/A time=00:04:27.85 bitrate=N/A speed=6.82x    frame= 6516 fps=164 q=-0.0 size=N/A time=00:04:31.77 bitrate=N/A speed=6.83x    frame= 6606 fps=164 q=-0.0 size=N/A time=00:04:35.52 bitrate=N/A speed=6.84x    frame= 6703 fps=164 q=-0.0 size=N/A time=00:04:39.57 bitrate=N/A speed=6.85x    frame= 6795 fps=164 q=-0.0 size=N/A time=00:04:43.40 bitrate=N/A speed=6.86x    frame= 6892 fps=165 q=-0.0 size=N/A time=00:04:47.45 bitrate=N/A speed=6.87x    frame= 6983 fps=165 q=-0.0 size=N/A time=00:04:51.24 bitrate=N/A speed=6.87x    frame= 7075 fps=165 q=-0.0 size=N/A time=00:04:55.08 bitrate=N/A speed=6.88x    frame= 7171 fps=165 q=-0.0 size=N/A time=00:04:59.09 bitrate=N/A speed=6.89x    frame= 7262 fps=165 q=-0.0 size=N/A time=00:05:02.88 bitrate=N/A speed= 6.9x    frame= 7359 fps=166 q=-0.0 size=N/A time=00:05:06.93 bitrate=N/A speed=6.91x    frame= 7451 fps=166 q=-0.0 size=N/A time=00:05:10.76 bitrate=N/A speed=6.92x    frame= 7541 fps=166 q=-0.0 size=N/A time=00:05:14.52 bitrate=N/A speed=6.92x    frame= 7656 fps=167 q=-0.0 size=N/A time=00:05:19.31 bitrate=N/A speed=6.95x    frame= 7753 fps=167 q=-0.0 size=N/A time=00:05:23.36 bitrate=N/A speed=6.96x    frame= 7853 fps=167 q=-0.0 size=N/A time=00:05:27.53 bitrate=N/A speed=6.97x    frame= 7949 fps=167 q=-0.0 size=N/A time=00:05:31.53 bitrate=N/A speed=6.98x    frame= 8050 fps=168 q=-0.0 size=N/A time=00:05:35.75 bitrate=N/A speed=6.99x    frame= 8152 fps=168 q=-0.0 size=N/A time=00:05:40.00 bitrate=N/A speed=   7x    frame= 8251 fps=168 q=-0.0 size=N/A time=00:05:44.13 bitrate=N/A speed=7.01x    frame= 8347 fps=168 q=-0.0 size=N/A time=00:05:48.13 bitrate=N/A speed=7.02x    frame= 8453 fps=169 q=-0.0 size=N/A time=00:05:52.56 bitrate=N/A speed=7.04x    frame= 8540 fps=169 q=-0.0 size=N/A time=00:05:56.18 bitrate=N/A speed=7.04x    frame= 8651 fps=169 q=-0.0 size=N/A time=00:06:00.81 bitrate=N/A speed=7.06x    frame= 8750 fps=169 q=-0.0 size=N/A time=00:06:04.94 bitrate=N/A speed=7.07x    frame= 8851 fps=170 q=-0.0 size=N/A time=00:06:09.16 bitrate=N/A speed=7.08x    frame= 8938 fps=170 q=-0.0 size=N/A time=00:06:12.78 bitrate=N/A speed=7.08x    frame= 9043 fps=170 q=-0.0 size=N/A time=00:06:17.16 bitrate=N/A speed=7.09x    frame= 9147 fps=170 q=-0.0 size=N/A time=00:06:21.50 bitrate=N/A speed= 7.1x    frame= 9249 fps=171 q=-0.0 size=N/A time=00:06:25.76 bitrate=N/A speed=7.11x    frame= 9343 fps=171 q=-0.0 size=N/A time=00:06:29.68 bitrate=N/A speed=7.12x    frame= 9443 fps=171 q=-0.0 size=N/A time=00:06:33.85 bitrate=N/A speed=7.13x    frame= 9530 fps=171 q=-0.0 size=N/A time=00:06:37.48 bitrate=N/A speed=7.13x    frame= 9638 fps=171 q=-0.0 size=N/A time=00:06:41.98 bitrate=N/A speed=7.14x    frame= 9727 fps=171 q=-0.0 size=N/A time=00:06:45.69 bitrate=N/A speed=7.14x    frame= 9823 fps=171 q=-0.0 size=N/A time=00:06:49.70 bitrate=N/A speed=7.15x    frame= 9909 fps=171 q=-0.0 size=N/A time=00:06:53.28 bitrate=N/A speed=7.15x    frame=10015 fps=172 q=-0.0 size=N/A time=00:06:57.70 bitrate=N/A speed=7.16x    frame=10118 fps=172 q=-0.0 size=N/A time=00:07:02.00 bitrate=N/A speed=7.17x    frame=10211 fps=172 q=-0.0 size=N/A time=00:07:05.88 bitrate=N/A speed=7.17x    frame=10305 fps=172 q=-0.0 size=N/A time=00:07:09.80 bitrate=N/A speed=7.17x    frame=10396 fps=172 q=-0.0 size=N/A time=00:07:13.59 bitrate=N/A speed=7.18x    frame=10494 fps=172 q=-0.0 size=N/A time=00:07:17.68 bitrate=N/A speed=7.18x    frame=10584 fps=172 q=-0.0 size=N/A time=00:07:21.44 bitrate=N/A speed=7.18x    frame=10680 fps=172 q=-0.0 size=N/A time=00:07:25.44 bitrate=N/A speed=7.19x    frame=10774 fps=172 q=-0.0 size=N/A time=00:07:29.36 bitrate=N/A speed=7.19x    frame=10868 fps=173 q=-0.0 size=N/A time=00:07:33.28 bitrate=N/A speed= 7.2x    frame=10955 fps=172 q=-0.0 size=N/A time=00:07:36.91 bitrate=N/A speed=7.19x    frame=11052 fps=173 q=-0.0 size=N/A time=00:07:40.96 bitrate=N/A speed= 7.2x    frame=11146 fps=173 q=-0.0 size=N/A time=00:07:44.88 bitrate=N/A speed= 7.2x    frame=11237 fps=173 q=-0.0 size=N/A time=00:07:48.67 bitrate=N/A speed= 7.2x    frame=11326 fps=173 q=-0.0 size=N/A time=00:07:52.38 bitrate=N/A speed=7.21x    frame=11420 fps=173 q=-0.0 size=N/A time=00:07:56.30 bitrate=N/A speed=7.21x    frame=11513 fps=173 q=-0.0 size=N/A time=00:08:00.18 bitrate=N/A speed=7.21x    frame=11604 fps=173 q=-0.0 size=N/A time=00:08:03.98 bitrate=N/A speed=7.21x    frame=11696 fps=173 q=-0.0 size=N/A time=00:08:07.82 bitrate=N/A speed=7.21x    frame=11787 fps=173 q=-0.0 size=N/A time=00:08:11.61 bitrate=N/A speed=7.21x    frame=11885 fps=173 q=-0.0 size=N/A time=00:08:15.70 bitrate=N/A speed=7.22x    frame=11979 fps=173 q=-0.0 size=N/A time=00:08:19.62 bitrate=N/A speed=7.22x    frame=12077 fps=173 q=-0.0 size=N/A time=00:08:23.71 bitrate=N/A speed=7.23x    frame=12175 fps=173 q=-0.0 size=N/A time=00:08:27.79 bitrate=N/A speed=7.23x    frame=12266 fps=173 q=-0.0 size=N/A time=00:08:31.59 bitrate=N/A speed=7.23x    frame=12366 fps=174 q=-0.0 size=N/A time=00:08:35.76 bitrate=N/A speed=7.24x    frame=12458 fps=174 q=-0.0 size=N/A time=00:08:39.60 bitrate=N/A speed=7.24x    frame=12551 fps=174 q=-0.0 size=N/A time=00:08:43.48 bitrate=N/A speed=7.24x    frame=12635 fps=174 q=-0.0 size=N/A time=00:08:46.98 bitrate=N/A speed=7.24x    frame=12737 fps=174 q=-0.0 size=N/A time=00:08:51.23 bitrate=N/A speed=7.25x    frame=12831 fps=174 q=-0.0 size=N/A time=00:08:55.15 bitrate=N/A speed=7.25x    frame=12930 fps=174 q=-0.0 size=N/A time=00:08:59.28 bitrate=N/A speed=7.25x    frame=13021 fps=174 q=-0.0 size=N/A time=00:09:03.08 bitrate=N/A speed=7.26x    frame=13127 fps=174 q=-0.0 size=N/A time=00:09:07.50 bitrate=N/A speed=7.26x    frame=13224 fps=174 q=-0.0 size=N/A time=00:09:11.55 bitrate=N/A speed=7.27x    frame=13323 fps=174 q=-0.0 size=N/A time=00:09:15.68 bitrate=N/A speed=7.27x    frame=13420 fps=174 q=-0.0 size=N/A time=00:09:19.72 bitrate=N/A speed=7.28x    frame=13517 fps=175 q=-0.0 size=N/A time=00:09:23.77 bitrate=N/A speed=7.28x    frame=13616 fps=175 q=-0.0 size=N/A time=00:09:27.90 bitrate=N/A speed=7.29x    frame=13720 fps=175 q=-0.0 size=N/A time=00:09:32.23 bitrate=N/A speed=7.29x    frame=13819 fps=175 q=-0.0 size=N/A time=00:09:36.36 bitrate=N/A speed= 7.3x    frame=13920 fps=175 q=-0.0 size=N/A time=00:09:40.58 bitrate=N/A speed= 7.3x    frame=14021 fps=175 q=-0.0 size=N/A time=00:09:44.79 bitrate=N/A speed=7.31x    frame=14115 fps=175 q=-0.0 size=N/A time=00:09:48.71 bitrate=N/A speed=7.31x    frame=14216 fps=175 q=-0.0 size=N/A time=00:09:52.92 bitrate=N/A speed=7.32x    frame=14311 fps=175 q=-0.0 size=N/A time=00:09:56.88 bitrate=N/A speed=7.32x    frame=14406 fps=176 q=-0.0 size=N/A time=00:10:00.85 bitrate=N/A speed=7.32x    frame=14506 fps=176 q=-0.0 size=N/A time=00:10:05.02 bitrate=N/A speed=7.33x    frame=14605 fps=176 q=-0.0 size=N/A time=00:10:09.15 bitrate=N/A speed=7.33x    frame=14701 fps=176 q=-0.0 size=N/A time=00:10:13.15 bitrate=N/A speed=7.33x    frame=14798 fps=176 q=-0.0 size=N/A time=00:10:17.19 bitrate=N/A speed=7.34x    frame=14897 fps=176 q=-0.0 size=N/A time=00:10:21.32 bitrate=N/A speed=7.34x    frame=14988 fps=176 q=-0.0 size=N/A time=00:10:25.12 bitrate=N/A speed=7.34x    frame=15087 fps=176 q=-0.0 size=N/A time=00:10:29.25 bitrate=N/A speed=7.34x    frame=15178 fps=176 q=-0.0 size=N/A time=00:10:33.04 bitrate=N/A speed=7.34x    frame=15278 fps=176 q=-0.0 size=N/A time=00:10:37.21 bitrate=N/A speed=7.35x    frame=15370 fps=176 q=-0.0 size=N/A time=00:10:41.05 bitrate=N/A speed=7.35x    frame=15470 fps=176 q=-0.0 size=N/A time=00:10:45.22 bitrate=N/A speed=7.35x    frame=15563 fps=176 q=-0.0 size=N/A time=00:10:49.10 bitrate=N/A speed=7.36x    frame=15656 fps=176 q=-0.0 size=N/A time=00:10:52.98 bitrate=N/A speed=7.36x    frame=15744 fps=176 q=-0.0 size=N/A time=00:10:56.65 bitrate=N/A speed=7.35x    frame=15839 fps=176 q=-0.0 size=N/A time=00:11:00.61 bitrate=N/A speed=7.36x    frame=15929 fps=176 q=-0.0 size=N/A time=00:11:04.37 bitrate=N/A speed=7.36x    frame=16021 fps=176 q=-0.0 size=N/A time=00:11:08.20 bitrate=N/A speed=7.36x    frame=16117 fps=176 q=-0.0 size=N/A time=00:11:12.21 bitrate=N/A speed=7.36x    frame=16213 fps=176 q=-0.0 size=N/A time=00:11:16.21 bitrate=N/A speed=7.36x    frame=16310 fps=177 q=-0.0 size=N/A time=00:11:20.26 bitrate=N/A speed=7.36x    frame=16402 fps=177 q=-0.0 size=N/A time=00:11:24.10 bitrate=N/A speed=7.36x    frame=16492 fps=177 q=-0.0 size=N/A time=00:11:27.85 bitrate=N/A speed=7.36x    frame=16581 fps=177 q=-0.0 size=N/A time=00:11:31.56 bitrate=N/A speed=7.36x    frame=16671 fps=177 q=-0.0 size=N/A time=00:11:35.31 bitrate=N/A speed=7.36x    frame=16767 fps=177 q=-0.0 size=N/A time=00:11:39.32 bitrate=N/A speed=7.36x    frame=16867 fps=177 q=-0.0 size=N/A time=00:11:43.49 bitrate=N/A speed=7.37x    frame=16963 fps=177 q=-0.0 size=N/A time=00:11:47.49 bitrate=N/A speed=7.37x    frame=17066 fps=177 q=-0.0 size=N/A time=00:11:51.79 bitrate=N/A speed=7.38x    frame=17165 fps=177 q=-0.0 size=N/A time=00:11:55.92 bitrate=N/A speed=7.38x    frame=17259 fps=177 q=-0.0 size=N/A time=00:11:59.84 bitrate=N/A speed=7.38x    frame=17369 fps=177 q=-0.0 size=N/A time=00:12:04.43 bitrate=N/A speed=7.39x    frame=17466 fps=177 q=-0.0 size=N/A time=00:12:08.47 bitrate=N/A speed=7.39x    frame=17567 fps=177 q=-0.0 size=N/A time=00:12:12.69 bitrate=N/A speed=7.39x    frame=17663 fps=177 q=-0.0 size=N/A time=00:12:16.69 bitrate=N/A speed= 7.4x    frame=17771 fps=178 q=-0.0 size=N/A time=00:12:21.19 bitrate=N/A speed= 7.4x    frame=17871 fps=178 q=-0.0 size=N/A time=00:12:25.36 bitrate=N/A speed=7.41x    frame=17972 fps=178 q=-0.0 size=N/A time=00:12:29.58 bitrate=N/A speed=7.41x    frame=18071 fps=178 q=-0.0 size=N/A time=00:12:33.71 bitrate=N/A speed=7.41x    frame=18169 fps=178 q=-0.0 size=N/A time=00:12:37.79 bitrate=N/A speed=7.42x    frame=18268 fps=178 q=-0.0 size=N/A time=00:12:41.92 bitrate=N/A speed=7.42x    frame=18363 fps=178 q=-0.0 size=N/A time=00:12:45.89 bitrate=N/A speed=7.42x    frame=18460 fps=178 q=-0.0 size=N/A time=00:12:49.93 bitrate=N/A speed=7.42x    frame=18554 fps=178 q=-0.0 size=N/A time=00:12:53.85 bitrate=N/A speed=7.42x    frame=18648 fps=178 q=-0.0 size=N/A time=00:12:57.77 bitrate=N/A speed=7.42x    frame=18746 fps=178 q=-0.0 size=N/A time=00:13:01.86 bitrate=N/A speed=7.43x    frame=18843 fps=178 q=-0.0 size=N/A time=00:13:05.91 bitrate=N/A speed=7.43x    frame=18932 fps=178 q=-0.0 size=N/A time=00:13:09.62 bitrate=N/A speed=7.43x    frame=19044 fps=178 q=-0.0 size=N/A time=00:13:14.29 bitrate=N/A speed=7.44x    frame=19145 fps=178 q=-0.0 size=N/A time=00:13:18.50 bitrate=N/A speed=7.44x    frame=19247 fps=178 q=-0.0 size=N/A time=00:13:22.76 bitrate=N/A speed=7.44x    frame=19344 fps=179 q=-0.0 size=N/A time=00:13:26.80 bitrate=N/A speed=7.45x    frame=19442 fps=179 q=-0.0 size=N/A time=00:13:30.89 bitrate=N/A speed=7.45x    frame=19540 fps=179 q=-0.0 size=N/A time=00:13:34.98 bitrate=N/A speed=7.45x    frame=19639 fps=179 q=-0.0 size=N/A time=00:13:39.10 bitrate=N/A speed=7.45x    frame=19735 fps=179 q=-0.0 size=N/A time=00:13:43.11 bitrate=N/A speed=7.45x    frame=19832 fps=179 q=-0.0 size=N/A time=00:13:47.15 bitrate=N/A speed=7.46x    frame=19927 fps=179 q=-0.0 size=N/A time=00:13:51.12 bitrate=N/A speed=7.46x    frame=20027 fps=179 q=-0.0 size=N/A time=00:13:55.29 bitrate=N/A speed=7.46x    frame=20118 fps=179 q=-0.0 size=N/A time=00:13:59.08 bitrate=N/A speed=7.46x    frame=20224 fps=179 q=-0.0 size=N/A time=00:14:03.50 bitrate=N/A speed=7.46x    frame=20321 fps=179 q=-0.0 size=N/A time=00:14:07.55 bitrate=N/A speed=7.47x    frame=20417 fps=179 q=-0.0 size=N/A time=00:14:11.55 bitrate=N/A speed=7.47x    frame=20517 fps=179 q=-0.0 size=N/A time=00:14:15.72 bitrate=N/A speed=7.47x    frame=20614 fps=179 q=-0.0 size=N/A time=00:14:19.77 bitrate=N/A speed=7.47x    frame=20707 fps=179 q=-0.0 size=N/A time=00:14:23.65 bitrate=N/A speed=7.47x    frame=20807 fps=179 q=-0.0 size=N/A time=00:14:27.82 bitrate=N/A speed=7.47x    frame=20902 fps=179 q=-0.0 size=N/A time=00:14:31.78 bitrate=N/A speed=7.47x    frame=20989 fps=179 q=-0.0 size=N/A time=00:14:35.41 bitrate=N/A speed=7.47x    frame=21095 fps=179 q=-0.0 size=N/A time=00:14:39.83 bitrate=N/A speed=7.48x    frame=21195 fps=179 q=-0.0 size=N/A time=00:14:44.00 bitrate=N/A speed=7.48x    frame=21287 fps=179 q=-0.0 size=N/A time=00:14:47.84 bitrate=N/A speed=7.48x    frame=21388 fps=179 q=-0.0 size=N/A time=00:14:52.05 bitrate=N/A speed=7.48x    frame=21489 fps=179 q=-0.0 size=N/A time=00:14:56.27 bitrate=N/A speed=7.49x    frame=21588 fps=180 q=-0.0 size=N/A time=00:15:00.39 bitrate=N/A speed=7.49x    frame=21679 fps=180 q=-0.0 size=N/A time=00:15:04.19 bitrate=N/A speed=7.49x    frame=21777 fps=180 q=-0.0 size=N/A time=00:15:08.28 bitrate=N/A speed=7.49x    frame=21882 fps=180 q=-0.0 size=N/A time=00:15:12.66 bitrate=N/A speed=7.49x    frame=21978 fps=180 q=-0.0 size=N/A time=00:15:16.66 bitrate=N/A speed= 7.5x    frame=22069 fps=180 q=-0.0 size=N/A time=00:15:20.46 bitrate=N/A speed=7.49x    frame=22179 fps=180 q=-0.0 size=N/A time=00:15:25.04 bitrate=N/A speed= 7.5x    frame=22280 fps=180 q=-0.0 size=N/A time=00:15:29.26 bitrate=N/A speed= 7.5x    frame=22380 fps=180 q=-0.0 size=N/A time=00:15:33.43 bitrate=N/A speed=7.51x    frame=22477 fps=180 q=-0.0 size=N/A time=00:15:37.47 bitrate=N/A speed=7.51x    frame=22579 fps=180 q=-0.0 size=N/A time=00:15:41.73 bitrate=N/A speed=7.51x    frame=22678 fps=180 q=-0.0 size=N/A time=00:15:45.86 bitrate=N/A speed=7.51x    frame=22779 fps=180 q=-0.0 size=N/A time=00:15:50.07 bitrate=N/A speed=7.51x    frame=22879 fps=180 q=-0.0 size=N/A time=00:15:54.24 bitrate=N/A speed=7.52x    frame=22979 fps=180 q=-0.0 size=N/A time=00:15:58.41 bitrate=N/A speed=7.52x    frame=23071 fps=180 q=-0.0 size=N/A time=00:16:02.25 bitrate=N/A speed=7.52x    frame=23177 fps=180 q=-0.0 size=N/A time=00:16:06.67 bitrate=N/A speed=7.52x    frame=23279 fps=180 q=-0.0 size=N/A time=00:16:10.92 bitrate=N/A speed=7.53x    frame=23374 fps=180 q=-0.0 size=N/A time=00:16:14.89 bitrate=N/A speed=7.53x    frame=23474 fps=181 q=-0.0 size=N/A time=00:16:19.06 bitrate=N/A speed=7.53x    frame=23576 fps=181 q=-0.0 size=N/A time=00:16:23.31 bitrate=N/A speed=7.53x    frame=23677 fps=181 q=-0.0 size=N/A time=00:16:27.52 bitrate=N/A speed=7.53x    frame=23776 fps=181 q=-0.0 size=N/A time=00:16:31.65 bitrate=N/A speed=7.54x    frame=23872 fps=181 q=-0.0 size=N/A time=00:16:35.66 bitrate=N/A speed=7.54x    frame=23972 fps=181 q=-0.0 size=N/A time=00:16:39.83 bitrate=N/A speed=7.54x    frame=24071 fps=181 q=-0.0 size=N/A time=00:16:43.96 bitrate=N/A speed=7.54x    frame=24169 fps=181 q=-0.0 size=N/A time=00:16:48.04 bitrate=N/A speed=7.54x    frame=24268 fps=181 q=-0.0 size=N/A time=00:16:52.17 bitrate=N/A speed=7.54x    frame=24370 fps=181 q=-0.0 size=N/A time=00:16:56.43 bitrate=N/A speed=7.55x    frame=24472 fps=181 q=-0.0 size=N/A time=00:17:00.68 bitrate=N/A speed=7.55x    frame=24571 fps=181 q=-0.0 size=N/A time=00:17:04.81 bitrate=N/A speed=7.55x    frame=24672 fps=181 q=-0.0 size=N/A time=00:17:09.02 bitrate=N/A speed=7.55x    frame=24772 fps=181 q=-0.0 size=N/A time=00:17:13.19 bitrate=N/A speed=7.56x    frame=24875 fps=181 q=-0.0 size=N/A time=00:17:17.49 bitrate=N/A speed=7.56x    frame=24970 fps=181 q=-0.0 size=N/A time=00:17:21.45 bitrate=N/A speed=7.56x    frame=25074 fps=181 q=-0.0 size=N/A time=00:17:25.79 bitrate=N/A speed=7.56x    frame=25169 fps=181 q=-0.0 size=N/A time=00:17:29.75 bitrate=N/A speed=7.56x    frame=25266 fps=181 q=-0.0 size=N/A time=00:17:33.80 bitrate=N/A speed=7.56x    frame=25357 fps=181 q=-0.0 size=N/A time=00:17:37.59 bitrate=N/A speed=7.56x    frame=25454 fps=181 q=-0.0 size=N/A time=00:17:41.64 bitrate=N/A speed=7.56x    frame=25535 fps=181 q=-0.0 size=N/A time=00:17:45.02 bitrate=N/A speed=7.56x    frame=25651 fps=181 q=-0.0 size=N/A time=00:17:49.86 bitrate=N/A speed=7.57x    frame=25748 fps=181 q=-0.0 size=N/A time=00:17:53.90 bitrate=N/A speed=7.57x    frame=25846 fps=181 q=-0.0 size=N/A time=00:17:57.99 bitrate=N/A speed=7.57x    frame=25955 fps=182 q=-0.0 size=N/A time=00:18:02.53 bitrate=N/A speed=7.57x    frame=26053 fps=182 q=-0.0 size=N/A time=00:18:06.62 bitrate=N/A speed=7.57x    frame=26141 fps=182 q=-0.0 size=N/A time=00:18:10.29 bitrate=N/A speed=7.57x    frame=26254 fps=182 q=-0.0 size=N/A time=00:18:15.01 bitrate=N/A speed=7.58x    frame=26355 fps=182 q=-0.0 size=N/A time=00:18:19.22 bitrate=N/A speed=7.58x    frame=26452 fps=182 q=-0.0 size=N/A time=00:18:23.26 bitrate=N/A speed=7.58x    frame=26551 fps=182 q=-0.0 size=N/A time=00:18:27.39 bitrate=N/A speed=7.58x    frame=26648 fps=182 q=-0.0 size=N/A time=00:18:31.44 bitrate=N/A speed=7.58x    frame=26750 fps=182 q=-0.0 size=N/A time=00:18:35.69 bitrate=N/A speed=7.59x    frame=26847 fps=182 q=-0.0 size=N/A time=00:18:39.74 bitrate=N/A speed=7.59x    frame=26955 fps=182 q=-0.0 size=N/A time=00:18:44.24 bitrate=N/A speed=7.59x    frame=27054 fps=182 q=-0.0 size=N/A time=00:18:48.37 bitrate=N/A speed=7.59x    frame=27154 fps=182 q=-0.0 size=N/A time=00:18:52.54 bitrate=N/A speed=7.59x    frame=27246 fps=182 q=-0.0 size=N/A time=00:18:56.38 bitrate=N/A speed=7.59x    frame=27349 fps=182 q=-0.0 size=N/A time=00:19:00.68 bitrate=N/A speed= 7.6x    frame=27451 fps=182 q=-0.0 size=N/A time=00:19:04.93 bitrate=N/A speed= 7.6x    frame=27539 fps=182 q=-0.0 size=N/A time=00:19:08.60 bitrate=N/A speed= 7.6x    frame=27630 fps=182 q=-0.0 size=N/A time=00:19:12.40 bitrate=N/A speed= 7.6x    frame=27723 fps=182 q=-0.0 size=N/A time=00:19:16.28 bitrate=N/A speed= 7.6x    frame=27819 fps=182 q=-0.0 size=N/A time=00:19:20.28 bitrate=N/A speed= 7.6x    frame=27909 fps=182 q=-0.0 size=N/A time=00:19:24.03 bitrate=N/A speed=7.59x    frame=28009 fps=182 q=-0.0 size=N/A time=00:19:28.20 bitrate=N/A speed= 7.6x    frame=28109 fps=182 q=-0.0 size=N/A time=00:19:32.37 bitrate=N/A speed= 7.6x    frame=28198 fps=182 q=-0.0 size=N/A time=00:19:36.09 bitrate=N/A speed= 7.6x    frame=28308 fps=182 q=-0.0 size=N/A time=00:19:40.67 bitrate=N/A speed= 7.6x    frame=28400 fps=182 q=-0.0 size=N/A time=00:19:44.51 bitrate=N/A speed= 7.6x    frame=28500 fps=182 q=-0.0 size=N/A time=00:19:48.68 bitrate=N/A speed= 7.6x    frame=28590 fps=182 q=-0.0 size=N/A time=00:19:52.44 bitrate=N/A speed= 7.6x    frame=28690 fps=182 q=-0.0 size=N/A time=00:19:56.61 bitrate=N/A speed= 7.6x    frame=28785 fps=182 q=-0.0 size=N/A time=00:20:00.57 bitrate=N/A speed= 7.6x    frame=28884 fps=182 q=-0.0 size=N/A time=00:20:04.70 bitrate=N/A speed= 7.6x    frame=28977 fps=182 q=-0.0 size=N/A time=00:20:08.58 bitrate=N/A speed= 7.6x    frame=29078 fps=182 q=-0.0 size=N/A time=00:20:12.79 bitrate=N/A speed=7.61x    frame=29175 fps=182 q=-0.0 size=N/A time=00:20:16.84 bitrate=N/A speed=7.61x    frame=29276 fps=182 q=-0.0 size=N/A time=00:20:21.05 bitrate=N/A speed=7.61x    frame=29378 fps=182 q=-0.0 size=N/A time=00:20:25.30 bitrate=N/A speed=7.61x    frame=29482 fps=183 q=-0.0 size=N/A time=00:20:29.64 bitrate=N/A speed=7.61x    frame=29570 fps=182 q=-0.0 size=N/A time=00:20:33.31 bitrate=N/A speed=7.61x    frame=29685 fps=183 q=-0.0 size=N/A time=00:20:38.11 bitrate=N/A speed=7.62x    frame=29784 fps=183 q=-0.0 size=N/A time=00:20:42.24 bitrate=N/A speed=7.62x    frame=29877 fps=183 q=-0.0 size=N/A time=00:20:46.11 bitrate=N/A speed=7.62x    frame=29986 fps=183 q=-0.0 size=N/A time=00:20:50.66 bitrate=N/A speed=7.62x    frame=30082 fps=183 q=-0.0 size=N/A time=00:20:54.67 bitrate=N/A speed=7.62x    frame=30178 fps=183 q=-0.0 size=N/A time=00:20:58.67 bitrate=N/A speed=7.62x    frame=30271 fps=183 q=-0.0 size=N/A time=00:21:02.55 bitrate=N/A speed=7.62x    frame=30375 fps=183 q=-0.0 size=N/A time=00:21:06.89 bitrate=N/A speed=7.62x    frame=30477 fps=183 q=-0.0 size=N/A time=00:21:11.14 bitrate=N/A speed=7.63x    frame=30566 fps=183 q=-0.0 size=N/A time=00:21:14.85 bitrate=N/A speed=7.63x    frame=30667 fps=183 q=-0.0 size=N/A time=00:21:19.06 bitrate=N/A speed=7.63x    frame=30765 fps=183 q=-0.0 size=N/A time=00:21:23.15 bitrate=N/A speed=7.63x    frame=30866 fps=183 q=-0.0 size=N/A time=00:21:27.36 bitrate=N/A speed=7.63x    frame=30968 fps=183 q=-0.0 size=N/A time=00:21:31.62 bitrate=N/A speed=7.63x    frame=31065 fps=183 q=-0.0 size=N/A time=00:21:35.66 bitrate=N/A speed=7.63x    frame=31155 fps=183 q=-0.0 size=N/A time=00:21:39.42 bitrate=N/A speed=7.63x    frame=31259 fps=183 q=-0.0 size=N/A time=00:21:43.76 bitrate=N/A speed=7.63x    frame=31361 fps=183 q=-0.0 size=N/A time=00:21:48.01 bitrate=N/A speed=7.63x    frame=31461 fps=183 q=-0.0 size=N/A time=00:21:52.18 bitrate=N/A speed=7.64x    frame=31562 fps=183 q=-0.0 size=N/A time=00:21:56.39 bitrate=N/A speed=7.64x    frame=31654 fps=183 q=-0.0 size=N/A time=00:22:00.23 bitrate=N/A speed=7.64x    frame=31757 fps=183 q=-0.0 size=N/A time=00:22:04.53 bitrate=N/A speed=7.64x    frame=31857 fps=183 q=-0.0 size=N/A time=00:22:08.70 bitrate=N/A speed=7.64x    frame=31947 fps=183 q=-0.0 size=N/A time=00:22:12.45 bitrate=N/A speed=7.64x    frame=32053 fps=183 q=-0.0 size=N/A time=00:22:16.87 bitrate=N/A speed=7.64x    frame=32141 fps=183 q=-0.0 size=N/A time=00:22:20.54 bitrate=N/A speed=7.64x    frame=32248 fps=183 q=-0.0 size=N/A time=00:22:25.01 bitrate=N/A speed=7.64x    frame=32349 fps=183 q=-0.0 size=N/A time=00:22:29.22 bitrate=N/A speed=7.64x    frame=32448 fps=183 q=-0.0 size=N/A time=00:22:33.35 bitrate=N/A speed=7.65x    frame=32546 fps=183 q=-0.0 size=N/A time=00:22:37.43 bitrate=N/A speed=7.65x    frame=32648 fps=183 q=-0.0 size=N/A time=00:22:41.69 bitrate=N/A speed=7.65x    frame=32749 fps=183 q=-0.0 size=N/A time=00:22:45.90 bitrate=N/A speed=7.65x    frame=32847 fps=183 q=-0.0 size=N/A time=00:22:49.99 bitrate=N/A speed=7.65x    frame=32952 fps=183 q=-0.0 size=N/A time=00:22:54.37 bitrate=N/A speed=7.65x    frame=33043 fps=183 q=-0.0 size=N/A time=00:22:58.16 bitrate=N/A speed=7.65x    frame=33148 fps=184 q=-0.0 size=N/A time=00:23:02.54 bitrate=N/A speed=7.65x    frame=33253 fps=184 q=-0.0 size=N/A time=00:23:06.92 bitrate=N/A speed=7.66x    frame=33351 fps=184 q=-0.0 size=N/A time=00:23:11.01 bitrate=N/A speed=7.66x    frame=33451 fps=184 q=-0.0 size=N/A time=00:23:15.18 bitrate=N/A speed=7.66x    frame=33552 fps=184 q=-0.0 size=N/A time=00:23:19.39 bitrate=N/A speed=7.66x    frame=33653 fps=184 q=-0.0 size=N/A time=00:23:23.61 bitrate=N/A speed=7.66x    frame=33755 fps=184 q=-0.0 size=N/A time=00:23:27.86 bitrate=N/A speed=7.66x    frame=33848 fps=184 q=-0.0 size=N/A time=00:23:31.74 bitrate=N/A speed=7.66x    frame=33935 fps=184 q=-0.0 size=N/A time=00:23:35.37 bitrate=N/A speed=7.66x    frame=34023 fps=184 q=-0.0 size=N/A time=00:23:39.04 bitrate=N/A speed=7.66x    [Parsed_psnr_10 @ 0000028e80dbf800] PSNR y:45.578574 u:50.927247 v:50.092783 average:46.689775 min:36.778315 max:inf
[out#0/null @ 0000028ef4c71d80] video:14629KiB audio:266260KiB subtitle:0KiB other streams:0KiB global headers:0KiB muxing overhead: unknown
frame=34046 fps=184 q=-0.0 Lsize=N/A time=00:23:40.00 bitrate=N/A speed=7.66x    
